<?xml version="1.0" encoding="utf-8"?>
<svg xmlns="http://www.w3.org/2000/svg" viewBox="221.1625 436.4607 1344.8375 935.7394" width="1344.84pt" height="935.739pt">
  <g transform="matrix(0.10000000149011613, 0, 0, -0.10000000149011613, 0, 1800)" fill="#000000" stroke="none">
    <path d="M8927 13633 c-49 -8 -43 -29 27 -100 122 -125 233 -292 281 -423 31 -84 63 -219 75 -320 11 -83 11 -134 0 -285 -10 -149 -10 -187 0 -200 17 -20 25 -19 36 5 l9 20 40 -20 c50 -25 235 -30 235 -6 0 15 17 20 103 31 26 3 45 10 42 15 -6 9 28 20 65 20 14 0 36 7 49 16 17 12 26 13 34 5 17 -17 35 -13 59 11 26 26 68 32 83 12 9 -13 15 -8 38 26 54 84 70 229 42 390 -14 82 -21 104 -68 215 -36 84 -266 302 -377 358 -8 4 -28 16 -45 27 -40 27 -219 114 -275 135 -135 49 -208 65 -315 69 -60 2 -123 2 -138 -1z"/>
    <path d="M7265 13589 c-60 -5 -123 -13 -139 -19 -16 -5 -42 -10 -58 -10 -64 0 -474 -109 -563 -149 -11 -5 -50 -21 -87 -35 -36 -14 -95 -39 -131 -56 -35 -16 -67 -30 -70 -30 -3 0 -29 -13 -57 -30 -28 -16 -55 -30 -60 -30 -5 0 -59 -29 -121 -65 -61 -36 -115 -65 -118 -65 -4 0 -29 -20 -56 -44 -63 -56 -58 -65 53 -111 95 -39 239 -111 263 -131 8 -8 19 -14 23 -14 10 0 61 -37 123 -88 58 -48 197 -122 228 -122 11 0 56 9 101 19 57 14 130 21 250 24 168 5 192 10 248 49 59 42 123 79 145 84 14 4 31 10 36 14 27 21 153 50 214 50 120 0 315 -66 361 -121 9 -11 205 -24 350 -22 105 1 171 8 237 22 51 12 115 21 142 21 27 0 60 4 73 9 13 5 44 10 68 12 25 2 48 9 52 14 4 6 8 33 8 62 0 67 -43 180 -104 271 -53 80 -177 201 -262 256 -32 21 -70 46 -84 55 -24 17 -136 72 -210 103 -160 69 -543 103 -855 77z"/>
    <path d="M10564 13304 c-32 -31 -28 -62 20 -167 63 -140 95 -285 108 -486 8 -126 12 -157 26 -167 46 -34 365 -34 420 0 8 4 40 8 73 7 45 0 59 3 59 14 0 23 22 29 36 10 10 -13 22 -16 51 -12 50 6 77 13 102 27 59 31 -9 233 -130 386 -48 60 -160 167 -199 188 -11 6 -47 30 -80 54 -33 23 -62 42 -64 42 -1 0 -43 22 -92 50 -49 27 -98 50 -109 50 -11 0 -33 7 -49 15 -16 8 -54 15 -88 15 -50 0 -63 -4 -84 -26z"/>
    <path d="M5115 12570 c-156 -15 -398 -127 -562 -262 -88 -73 -263 -260 -263 -282 0 -3 -13 -25 -29 -48 -16 -24 -48 -82 -71 -128 -22 -47 -44 -92 -49 -100 -15 -27 -89 -293 -105 -375 -8 -44 -20 -116 -27 -161 -20 -145 9 -294 41 -210 12 32 48 56 82 56 16 0 37 9 48 20 11 11 27 20 35 20 14 0 20 12 16 33 -1 4 4 7 11 6 38 -5 68 2 68 16 0 8 3 14 8 13 20 -5 122 25 122 36 0 7 18 22 40 35 22 12 40 26 40 32 0 5 9 9 19 9 11 0 22 4 25 9 3 5 22 12 41 15 20 4 35 13 35 21 0 7 20 21 44 30 24 9 53 27 64 39 39 41 55 49 103 54 40 4 49 8 49 23 0 20 15 25 25 9 12 -19 25 -10 25 18 0 20 8 32 31 46 17 10 35 28 40 40 12 25 80 72 147 101 37 16 49 17 90 7 26 -7 67 -15 92 -18 42 -7 51 -11 85 -42 10 -9 42 -11 117 -7 57 3 111 8 122 11 10 4 30 8 45 10 14 2 51 8 81 14 30 6 72 10 92 10 21 -1 47 4 59 11 17 8 20 8 14 -1 -5 -9 -1 -10 16 -5 13 4 28 14 32 21 13 22 57 18 57 -5 0 -20 46 -36 56 -19 3 4 9 6 13 4 4 -3 15 17 25 43 15 42 16 61 7 149 -20 196 -119 367 -289 501 -130 102 -190 129 -407 185 -72 18 -250 26 -360 16z"/>
    <path d="M12030 12490 c0 -241 -128 -441 -345 -538 -95 -42 -146 -52 -375 -72 -150 -13 -361 -52 -469 -86 -25 -8 -54 -14 -65 -14 -12 0 -34 -7 -50 -15 -15 -8 -34 -15 -41 -15 -13 0 -192 -63 -240 -84 -74 -34 -210 -100 -215 -105 -3 -4 -25 -17 -50 -30 -76 -40 -131 -83 -220 -171 -97 -96 -151 -166 -198 -257 -54 -104 -78 -225 -47 -237 16 -6 139 20 168 35 10 5 41 14 69 19 28 6 65 17 81 25 17 8 39 15 49 15 10 0 31 6 46 14 15 7 56 19 91 25 35 7 72 17 82 22 11 5 27 13 38 18 10 5 51 13 90 17 39 3 74 11 77 15 3 5 12 9 21 9 8 0 29 6 46 14 18 8 54 20 80 26 27 7 56 20 65 29 8 9 23 17 31 17 62 6 168 30 176 39 6 7 44 20 85 29 41 10 90 24 108 32 19 8 46 14 61 14 15 0 37 7 49 16 12 8 22 12 22 8 0 -5 5 -3 12 4 7 7 27 12 45 12 18 0 33 4 33 9 0 5 18 12 40 16 22 4 40 10 40 15 0 4 29 11 65 15 49 5 65 11 70 25 6 18 49 29 178 45 26 4 63 13 82 21 19 8 50 14 69 14 20 0 53 6 73 14 21 8 60 17 87 20 27 3 54 10 60 15 6 5 39 12 74 16 34 4 62 10 62 15 0 4 30 10 68 13 64 6 83 9 162 23 19 4 44 9 55 10 11 2 61 7 110 10 50 4 95 11 101 15 6 5 52 10 102 10 80 1 92 4 97 20 7 21 20 25 30 9 9 -14 78 -13 93 2 20 20 14 54 -26 141 -71 153 -199 308 -357 432 -27 22 -52 42 -55 45 -19 23 -231 151 -317 191 -134 64 -179 80 -230 86 l-43 5 0 -82z"/>
    <path d="M7535 11669 c-22 -5 -67 -13 -100 -18 -96 -15 -299 -73 -319 -92 -6 -5 -16 -9 -23 -9 -17 0 -232 -105 -243 -119 -3 -3 -23 -18 -46 -33 -53 -34 -210 -183 -240 -228 -13 -19 -36 -52 -50 -74 -14 -21 -32 -56 -40 -78 -13 -37 -12 -42 3 -54 16 -12 16 -15 3 -24 -9 -6 -10 -10 -3 -10 6 0 21 12 32 26 17 22 27 25 73 24 29 -1 87 6 128 14 41 9 102 19 135 22 33 3 69 9 80 14 18 8 85 23 110 25 6 0 15 3 20 7 6 4 51 10 100 13 50 4 99 13 111 20 11 7 45 15 75 18 30 3 77 10 104 16 28 7 86 14 130 17 44 4 87 12 95 19 8 7 51 15 95 18 44 4 126 12 181 19 99 13 264 15 432 6 46 -3 85 -1 88 4 8 13 24 9 24 -6 0 -11 20 -14 88 -15 48 0 110 -1 137 -2 67 -1 65 -2 65 19 0 21 -42 48 -58 38 -6 -3 -13 -2 -16 3 -4 5 -2 12 4 16 16 10 -13 56 -67 106 -139 130 -394 248 -603 279 -36 6 -90 14 -120 19 -69 12 -332 12 -385 0z"/>
    <path d="M12760 10923 c-30 -1 -109 -10 -175 -18 -66 -8 -138 -16 -160 -19 -22 -2 -65 -8 -95 -14 -30 -6 -86 -16 -125 -23 -119 -21 -258 -58 -267 -71 -4 -7 -8 -27 -8 -44 0 -58 29 -67 240 -76 102 -4 230 -14 285 -22 55 -8 152 -17 215 -21 63 -3 162 -10 220 -15 58 -5 179 -12 270 -16 90 -3 185 -9 210 -13 43 -6 124 0 135 10 3 3 -6 28 -19 55 -34 69 -160 193 -255 248 l-78 46 -169 -2 c-93 -1 -194 -3 -224 -5z"/>
    <path d="M2215 10028 c-3 -7 -4 -674 -3 -1483 l3 -1470 775 3 c760 3 893 7 1008 37 206 53 395 166 507 303 112 135 172 291 182 472 19 332 -133 576 -448 724 l-93 43 45 28 c120 75 216 188 269 315 84 203 77 408 -19 605 -115 232 -342 385 -634 424 -120 17 -1586 15 -1592 -1z m1324 -544 c193 -40 286 -139 285 -304 -1 -125 -48 -201 -157 -255 -114 -56 -221 -68 -516 -62 -134 3 -248 10 -252 14 -5 5 -8 146 -7 314 l3 304 145 6 c198 8 410 1 499 -17z m36 -1154 c170 -18 248 -47 320 -117 84 -83 118 -189 96 -296 -27 -132 -105 -220 -233 -263 -124 -42 -287 -51 -681 -37 l-187 6 2 351 3 351 160 5 c284 10 428 10 520 0z"/>
    <path d="M5047 10034 c-4 -4 -7 -667 -7 -1474 0 -1127 3 -1469 12 -1478 15 -15 630 -17 658 -2 18 10 19 27 13 503 -3 271 -3 505 1 520 l6 27 268 -2 267 -3 70 -108 c39 -59 118 -183 176 -275 275 -431 412 -643 426 -657 13 -13 67 -15 396 -13 378 3 382 3 381 23 0 12 -90 152 -200 313 -499 732 -574 842 -574 851 0 4 26 19 58 35 212 104 384 313 452 551 11 37 25 112 32 167 37 297 -106 626 -350 806 -121 90 -260 150 -447 194 -87 21 -119 22 -860 25 -424 3 -774 1 -778 -3z m1363 -545 c148 -22 237 -71 304 -168 77 -111 88 -302 25 -423 -23 -44 -81 -108 -125 -139 -115 -79 -277 -104 -628 -96 -137 3 -253 10 -258 15 -4 4 -7 190 -6 413 l3 404 185 6 c212 6 406 2 500 -12z"/>
    <path d="M9383 10028 c-12 -19 -123 -268 -210 -468 -41 -96 -85 -197 -98 -225 -12 -27 -63 -142 -113 -255 -107 -244 -152 -344 -210 -470 -16 -36 -40 -90 -52 -120 -13 -30 -38 -88 -56 -128 -19 -40 -34 -76 -34 -79 0 -3 -11 -29 -24 -57 -26 -55 -82 -178 -96 -211 -5 -11 -22 -49 -38 -85 -59 -130 -152 -341 -152 -346 0 -2 -14 -34 -31 -71 -17 -38 -42 -93 -56 -123 -13 -30 -31 -68 -38 -85 -92 -200 -98 -219 -72 -227 6 -2 155 -5 329 -7 313 -3 388 3 388 31 0 5 7 24 15 41 7 18 35 84 61 147 64 157 76 185 108 258 l29 62 669 0 669 0 39 -84 c22 -47 40 -90 40 -96 0 -7 6 -24 14 -38 8 -15 27 -58 41 -96 15 -38 31 -77 35 -85 5 -9 17 -38 28 -66 12 -29 30 -55 43 -62 18 -9 106 -11 354 -7 181 3 336 7 343 10 17 5 10 28 -34 120 -19 39 -34 74 -34 78 0 6 -35 84 -85 191 -8 17 -28 62 -45 100 -17 39 -50 111 -72 160 -23 50 -50 110 -60 135 -32 75 -44 103 -67 151 -11 25 -21 49 -21 53 0 3 -22 54 -50 112 -27 58 -50 108 -50 110 0 3 -9 24 -19 47 -11 23 -78 175 -149 337 -71 162 -141 320 -155 350 -14 31 -35 79 -46 109 -12 29 -38 87 -57 129 -35 75 -65 140 -116 252 -14 30 -47 105 -73 165 -26 61 -51 115 -55 120 -4 6 -23 46 -41 90 -18 44 -40 94 -49 110 l-17 30 -311 3 c-242 2 -312 -1 -319 -10z m422 -1041 c50 -114 112 -260 139 -324 118 -285 159 -381 182 -431 14 -30 23 -60 20 -68 -5 -12 -75 -14 -444 -14 -241 0 -441 3 -445 6 -6 6 0 23 66 184 35 87 214 503 314 733 31 70 61 126 67 124 6 -2 52 -97 101 -210z"/>
    <path d="M11677 10033 c-4 -3 -7 -667 -7 -1474 0 -1134 3 -1470 12 -1475 14 -9 641 -10 655 -1 6 4 9 568 9 1479 l-1 1473 -331 3 c-182 1 -333 -1 -337 -5z"/>
    <path d="M12707 10033 c-4 -3 -7 -669 -7 -1479 0 -1333 1 -1472 16 -1478 21 -8 628 -8 649 0 15 6 15 72 10 788 -3 429 -7 840 -10 911 -2 72 0 137 5 145 7 11 234 -211 935 -910 509 -509 932 -928 940 -932 8 -5 103 -7 212 -6 l198 3 3 1483 2 1482 -337 -2 -338 -3 0 -260 c0 -143 4 -559 9 -924 6 -471 6 -663 -2 -660 -18 7 -263 247 -1082 1065 l-786 784 -205 0 c-113 0 -209 -3 -212 -7z"/>
    <path d="M6002 6198 c-27 -27 100 -198 248 -334 57 -52 119 -101 173 -139 18 -12 59 -40 92 -62 77 -53 148 -93 260 -147 186 -90 254 -108 605 -161 122 -18 524 -21 611 -5 30 6 87 15 127 20 68 9 279 67 319 89 16 8 124 53 233 96 78 31 167 63 205 75 22 7 56 18 75 25 19 7 69 23 110 35 41 12 109 33 150 46 81 25 305 80 489 120 63 14 117 26 120 28 4 3 69 13 146 25 186 27 772 61 1056 61 396 0 619 50 748 168 l44 40 -59 4 c-52 4 -1670 3 -2082 -1 -94 0 -151 -5 -147 -10 11 -18 -170 -38 -190 -21 -16 13 -65 11 -289 -13 -77 -8 -168 -12 -203 -9 -39 3 -68 0 -76 -7 -9 -7 -142 -14 -398 -22 -211 -5 -391 -14 -400 -18 -8 -5 -40 -7 -70 -4 -30 2 -151 5 -269 6 -118 1 -220 5 -225 9 -6 3 -107 7 -225 8 -210 2 -495 22 -555 40 -29 8 -245 23 -375 25 -36 1 -76 4 -90 8 -14 3 -44 8 -68 10 -24 3 -49 10 -55 16 -14 14 -20 14 -35 -1z m3645 -34 c-3 -3 -12 -4 -19 -1 -8 3 -5 6 6 6 11 1 17 -2 13 -5z m-774 -51 c-7 -2 -21 -2 -30 0 -10 3 -4 5 12 5 17 0 24 -2 18 -5z"/>
    <path d="M6908 6123 c7 -3 16 -2 19 1 4 3 -2 6 -13 5 -11 0 -14 -3 -6 -6z"/>
    <path d="M13510 5991 c0 -5 7 -12 16 -15 14 -5 15 -4 4 9 -14 17 -20 19 -20 6z"/>
    <path d="M13445 5933 c-34 -5 -59 -23 -32 -23 25 0 21 -15 -7 -28 -21 -9 -25 -8 -29 6 -3 12 -5 11 -6 -5 0 -13 -4 -22 -8 -21 -24 5 -96 -25 -100 -43 -4 -13 -14 -19 -32 -19 -36 0 -71 -11 -71 -21 0 -5 8 -9 18 -10 12 0 10 -3 -8 -11 -14 -6 -54 -24 -89 -39 -35 -16 -73 -29 -86 -29 -12 0 -28 -7 -35 -15 -7 -9 -19 -13 -27 -11 -8 3 -24 -4 -36 -17 -25 -26 -69 -47 -97 -47 -10 0 -25 -8 -32 -17 -13 -17 -101 -53 -130 -53 -8 0 -28 -11 -44 -25 -15 -13 -42 -30 -59 -36 -16 -6 -44 -18 -62 -25 -17 -8 -36 -14 -42 -14 -6 0 -16 -10 -22 -23 -8 -18 -17 -22 -42 -19 -23 2 -40 -4 -61 -23 -16 -14 -35 -25 -41 -25 -7 0 -18 -7 -25 -15 -7 -8 -25 -15 -41 -15 -15 0 -32 -7 -37 -16 -6 -10 -31 -20 -63 -25 -38 -6 -60 -16 -75 -33 -26 -30 -56 -46 -85 -46 -13 0 -37 -13 -54 -28 -19 -18 -51 -34 -87 -42 -32 -7 -67 -22 -78 -32 -11 -11 -36 -26 -55 -34 -19 -8 -35 -18 -35 -23 0 -9 48 -23 138 -41 81 -16 385 -13 488 5 235 40 388 96 549 199 304 195 517 399 673 647 54 86 48 104 -33 92z"/>
    <path d="M13130 5780 c0 -5 5 -10 11 -10 5 0 7 5 4 10 -3 6 -8 10 -11 10 -2 0 -4 -4 -4 -10z"/>
    <path d="M9463 5113 c-21 -4 -20 -6 14 -66 55 -97 117 -180 210 -277 85 -90 202 -190 221 -190 5 0 15 -7 22 -15 36 -44 266 -160 395 -199 33 -10 69 -23 80 -27 11 -5 79 -20 150 -35 115 -23 153 -26 330 -26 190 1 221 4 442 41 28 5 66 14 85 19 18 6 66 20 105 32 40 11 77 28 82 37 15 27 -7 72 -37 78 -51 10 -222 61 -267 80 -16 6 -57 22 -90 35 -153 58 -426 213 -499 282 -17 15 -36 28 -44 28 -8 0 -28 6 -45 14 -18 8 -72 18 -122 22 -49 4 -92 8 -95 9 -3 1 -12 4 -20 8 -8 3 -58 11 -110 18 -52 6 -103 17 -115 25 -11 7 -86 21 -165 30 -80 9 -158 22 -175 29 -16 7 -58 15 -93 18 -34 3 -69 10 -76 16 -10 8 -17 7 -26 -4 -16 -19 -40 -20 -40 -1 0 20 -60 30 -117 19z"/>
  </g>
</svg>